<svg width="58" height="12" viewBox="0 0 58 12" fill="none" xmlns="http://www.w3.org/2000/svg">
<path d="M2.99186 12.0002V2.81619H0.255859V0.992188H7.75986V2.81619H5.02386V12.0002H2.99186Z" fill="#232025"/>
<path d="M22.6061 12.0002L21.9341 9.53619H18.3341L17.6781 12.0002H15.6301L18.7501 0.992188H21.5821L24.7021 12.0002H22.6061ZM20.1741 2.92819H20.0941L18.7981 7.77619H21.4541L20.1741 2.92819Z" fill="#232025"/>
<path d="M34.0737 12.0002V0.992188H36.1057V10.1762H39.9937V12.0002H34.0737Z" fill="#232025"/>
<path d="M55.528 12.0002L54.856 9.53619H51.256L50.6 12.0002H48.552L51.672 0.992188H54.504L57.624 12.0002H55.528ZM53.096 2.92819H53.016L51.72 7.77619H54.376L53.096 2.92819Z" fill="#232025"/>
</svg>
